<svg xmlns="http://www.w3.org/2000/svg" width="25.579" height="24.524" viewBox="0 0 25.579 24.524"><defs><style>.a{fill:#fff;stroke:#fff;stroke-width:0.5px;}</style></defs><g transform="translate(0.259 -0.243)"><path class="a" d="M10.274,17.587l.457.015a.027.027,0,0,1,.024.018l.2.6a.37.37,0,0,0,.7-.234l-.2-.595a.77.77,0,0,0-.7-.524c-.451-.015-.478,0-.482-.039l-.279-2.852a.765.765,0,0,0-.8-.691.486.486,0,0,1-.128-.008c0-.008-.344-1.128-.347-1.137a.767.767,0,0,0-.5-.506c-1.957-.641-1.54-.463-2.242-.892h0a.026.026,0,0,1-.013-.024l.018-.3A.767.767,0,0,0,4.9,9.67c-.939.416-1.345.6-1.456.641-.633-.041-.648-.027-.649-.066l0-.106a.767.767,0,0,0-1.028-.694.027.027,0,0,1-.029-.007L.747,8.316a.026.026,0,0,1-.005-.026L1.11,7.258a.027.027,0,0,1,.02-.017l1.443-.283a.763.763,0,0,0,.615-.675c.264-2.6.284-1.881-.015-3.246-.009-.045-.006-.028.992-.179a.027.027,0,0,1,.024.009l.586.673a.77.77,0,0,0,.955.164l.8-.449a.769.769,0,0,0,.353-.905L6.632,1.6c-.015-.045,0-.031,1.951-.356.035-.006-.006-.09.575,1.654a.764.764,0,0,0,.9.5L11.1,3.156a.778.778,0,0,0,.586-.635c.018-.029-.029-.028,1.13.291a.769.769,0,0,0,.827-.294l.281-.394a.026.026,0,0,1,.046.006c.648,1.694.625,1.781.961,1.949l1.081.541a.37.37,0,1,0,.331-.662l-1.082-.541c-.068-.124-.242-.614-.6-1.551a.767.767,0,0,0-1.34-.172l-.281.394a.027.027,0,0,1-.028.01l-1.1-.3a.767.767,0,0,0-.955.589c0,.018-.007.046-.026.05-1.086.254-1.057.263-1.069.226L9.315,1.024A.763.763,0,0,0,8.461.51L6.531.832a.767.767,0,0,0-.6.994l.245.752c.011.034.024.011-.808.48a.027.027,0,0,1-.033-.006L4.747,2.38a.763.763,0,0,0-.694-.254l-.97.147A.767.767,0,0,0,2.45,3.2l.209.952c-.006.116-.058.594-.207,2.061,0,.031.076,0-1.464.307a.771.771,0,0,0-.574.495L.045,8.04a.767.767,0,0,0,.148.766l.991,1.121a.763.763,0,0,0,.837.213.026.026,0,0,1,.035.024l0,.106a.764.764,0,0,0,.717.739c1.018.066.53.178,2.428-.662a.026.026,0,0,1,.037.026.922.922,0,0,0,.349,1h0c.791.483.309.28,2.4.963A.027.027,0,0,1,8,12.351l.342,1.125c.128.42.454.544.882.544A17.036,17.036,0,0,1,9.535,16.9.769.769,0,0,0,10.274,17.587Zm0,0" transform="translate(0 0)"/><path class="a" d="M210.869,221.193c-1.094,1.02-1.14,1.017-1.2,1.308-.466,2.121-.618,2.837-.662,2.994-.011.016-1.763,2.542-1.782,2.543-2.713.209-2.6.157-2.846.371-1.292,1.127-1.352,1.118-1.405,1.466-.124.814-.179,1.232-.209,1.347l-2.247,2.277a.026.026,0,0,1-.037,0l-1.591-1.566c-.038-.037-.081.024,1.62-1.3a.768.768,0,0,0,.26-.836l-.145-.535a.37.37,0,0,0-.715.194c0,.017.148.548.154.564a.026.026,0,0,1-.009.029l-1.618,1.258a.767.767,0,0,0-.067,1.152l1.591,1.566a.768.768,0,0,0,1.084-.008l2.246-2.276c.285-.289.2-.582.415-1.757.09-.1.458-.407,1.158-1.017.168-.031.84-.071,2.418-.192a.763.763,0,0,0,.571-.327l1.764-2.534c.11-.142.076-.072.776-3.256.076-.088.392-.372.986-.926a.37.37,0,0,0-.5-.541Zm0,0" transform="translate(-188.435 -209.793)"/><path class="a" d="M358.622,87.264a.767.767,0,0,0-.761-.677h-.545c-.161-.109-.74-.619-2.125-1.8-.3-.255-.409-.188-2.435-.09-.106-.042-.483-.244-1.3-.662a.37.37,0,0,0-.338.659c1.436.738,1.407.756,1.67.743,1.226-.059,1.746-.1,1.921-.085,2.207,1.877,2.233,1.973,2.568,1.973.586,0,.6-.015.607.023,0,.02.186,1.523.172,1.536l-.831.822a.371.371,0,0,0,.26.633c.2,0,.194-.042,1.091-.928a.771.771,0,0,0,.228-.545C358.807,88.806,358.817,88.914,358.622,87.264Zm0,0" transform="translate(-333.736 -79.409)"/></g></svg>