<svg xmlns="http://www.w3.org/2000/svg" width="334.998" height="21.884" viewBox="0 0 334.998 21.884"><defs><style>.a{isolation:isolate;}.b{fill:#fff;}.c{opacity:0.8;}</style></defs><g transform="translate(0.004 0.004)"><g class="a"><g class="a"><path class="b" d="M2567.281,464.641a11.351,11.351,0,0,1-5.485-1.24,8.519,8.519,0,0,1-3.511-3.512,11.235,11.235,0,0,1-1.225-5.41,13.089,13.089,0,0,1,1.375-6.172,9.77,9.77,0,0,1,3.915-4.05,11.957,11.957,0,0,1,5.978-1.435,14.053,14.053,0,0,1,4.333.628,10.036,10.036,0,0,1,3.377,1.823l-1.764,3.347a10.332,10.332,0,0,0-2.69-1.6,8.434,8.434,0,0,0-3.2-.493,6.861,6.861,0,0,0-3.6,1.016,5.951,5.951,0,0,0-2.241,2.72,10.567,10.567,0,0,0-.762,4.214,7.181,7.181,0,0,0,1.494,4.842,5.75,5.75,0,0,0,4.6,1.733,10.961,10.961,0,0,0,2.181-.224,16.653,16.653,0,0,0,2.212-.613l-1.136,1.584.448-5.918h-4.18l.269-3.257h8.368L2575.26,463a12.447,12.447,0,0,1-2.316.9,19.6,19.6,0,0,1-2.72.553A22.186,22.186,0,0,1,2567.281,464.641Z" transform="translate(-2557.06 -442.794)"/><path class="b" d="M2639.76,464.606a11.3,11.3,0,0,1-5.44-1.24,8.565,8.565,0,0,1-3.541-3.527,11.28,11.28,0,0,1-1.24-5.454,13.644,13.644,0,0,1,1.3-6.142,9.734,9.734,0,0,1,3.661-4.065,10.412,10.412,0,0,1,5.559-1.449,11.219,11.219,0,0,1,5.425,1.24,8.714,8.714,0,0,1,3.542,3.512,11.156,11.156,0,0,1,1.255,5.469,13.631,13.631,0,0,1-1.3,6.142,9.733,9.733,0,0,1-3.661,4.065,10.412,10.412,0,0,1-5.56,1.449Zm-.03-3.646a5.149,5.149,0,0,0,3.123-.971,6.147,6.147,0,0,0,2.047-2.75,11.467,11.467,0,0,0,.718-4.289,7.31,7.31,0,0,0-1.45-4.872,5.029,5.029,0,0,0-4.05-1.7,5.251,5.251,0,0,0-3.183.971,6.041,6.041,0,0,0-2.032,2.765,11.812,11.812,0,0,0-.7,4.3,7.312,7.312,0,0,0,1.435,4.842,5.055,5.055,0,0,0,4.093,1.7Z" transform="translate(-2607.975 -442.729)"/><path class="b" d="M2717.039,464.606a11.3,11.3,0,0,1-5.439-1.24,8.565,8.565,0,0,1-3.542-3.527,11.282,11.282,0,0,1-1.24-5.454,13.651,13.651,0,0,1,1.3-6.142,9.744,9.744,0,0,1,3.662-4.065,10.412,10.412,0,0,1,5.559-1.449,11.218,11.218,0,0,1,5.424,1.24,8.709,8.709,0,0,1,3.542,3.512,11.142,11.142,0,0,1,1.256,5.469,13.641,13.641,0,0,1-1.3,6.142,9.731,9.731,0,0,1-3.661,4.065,10.413,10.413,0,0,1-5.562,1.449Zm-.03-3.646a5.153,5.153,0,0,0,3.123-.971,6.145,6.145,0,0,0,2.047-2.75,11.457,11.457,0,0,0,.718-4.289,7.313,7.313,0,0,0-1.449-4.872,5.03,5.03,0,0,0-4.05-1.7,5.253,5.253,0,0,0-3.183.971,6.046,6.046,0,0,0-2.032,2.765,11.8,11.8,0,0,0-.7,4.3,7.311,7.311,0,0,0,1.434,4.842,5.053,5.053,0,0,0,4.093,1.7Z" transform="translate(-2662.195 -442.729)"/><path class="b" d="M2783.427,464.967l1.644-21.279h8.219a11.852,11.852,0,0,1,5.529,1.21,8.559,8.559,0,0,1,3.586,3.422,10.553,10.553,0,0,1,1.255,5.29,12.716,12.716,0,0,1-1.375,6.127,9.234,9.234,0,0,1-3.975,3.885,13.516,13.516,0,0,1-6.276,1.345Zm4.961-3.766h3.257q3.706,0,5.529-1.883T2799,453.58a6.107,6.107,0,0,0-1.6-4.558,6.456,6.456,0,0,0-4.707-1.569h-3.2Z" transform="translate(-2715.954 -443.389)"/></g></g><g class="a" transform="translate(99.73)"><g class="a"><path class="b" d="M2877.721,465.063l1.673-21.279h3.437l10.4,14.645-1.017.568,1.226-15.212h4.363l-1.674,21.279h-3.5l-10.311-14.585.986-.628-1.255,15.213Z" transform="translate(-2877.721 -443.515)"/><path class="b" d="M2950.681,465.063l1.674-21.279h14.674l-.3,3.616h-10.072l-1.135,14.047h10.1l-.3,3.616Zm4.781-9,.269-3.646h10.012l-.329,3.646Z" transform="translate(-2927.967 -443.515)"/><path class="b" d="M3014.809,465.063l-5.858-21.279h4.692l4.214,16.468h-1.226l7.053-16.468h3.288l4.214,16.468h-1.046l6.874-16.468h4.453l-9.205,21.279h-3.736l-4.154-15.123h.718l-6.516,15.123Z" transform="translate(-2968.096 -443.515)"/><path class="b" d="M3121.525,464.737a17.214,17.214,0,0,1-4.722-.628,12.473,12.473,0,0,1-3.885-1.823l1.763-3.347a12.126,12.126,0,0,0,3.333,1.629,12.486,12.486,0,0,0,3.661.523,6.173,6.173,0,0,0,3.018-.6,1.893,1.893,0,0,0,1.046-1.733,1.7,1.7,0,0,0-.628-1.345,5.36,5.36,0,0,0-1.644-.911q-1.017-.374-2.242-.717t-2.436-.792a10.769,10.769,0,0,1-2.241-1.136,4.907,4.907,0,0,1-2.256-4.363,5.64,5.64,0,0,1,1.091-3.467,7.12,7.12,0,0,1,3.078-2.286,12.1,12.1,0,0,1,4.647-.822,14.288,14.288,0,0,1,4.364.658,9.218,9.218,0,0,1,3.348,1.793l-1.734,3.347a10.249,10.249,0,0,0-2.929-1.6,9.487,9.487,0,0,0-3.138-.553,5.887,5.887,0,0,0-3.033.658,2.08,2.08,0,0,0-1.091,1.883,1.774,1.774,0,0,0,.628,1.39,5.119,5.119,0,0,0,1.659.926q1.031.374,2.241.718t2.451.777a10.123,10.123,0,0,1,2.257,1.106,5.436,5.436,0,0,1,1.644,1.689,4.759,4.759,0,0,1,.627,2.54,5.784,5.784,0,0,1-1.061,3.511,6.577,6.577,0,0,1-3.033,2.212,13.3,13.3,0,0,1-4.782.763Z" transform="translate(-3039.696 -442.92)"/></g></g><g class="c" transform="translate(202.862 2.408)"><g class="a"><path class="b" d="M3194.074,484.423a6.268,6.268,0,0,1-3.2-.781,5.148,5.148,0,0,1-2.067-2.245,7.749,7.749,0,0,1-.719-3.451,7.641,7.641,0,0,1,.719-3.434,5.164,5.164,0,0,1,2.066-2.227,6.268,6.268,0,0,1,3.2-.781,7.151,7.151,0,0,1,2.387.39,5.074,5.074,0,0,1,1.89,1.153l-.639,1.366a6.39,6.39,0,0,0-1.747-1.056,5.221,5.221,0,0,0-1.872-.328,3.774,3.774,0,0,0-3.035,1.269,5.467,5.467,0,0,0-1.082,3.647,5.569,5.569,0,0,0,1.073,3.665,3.743,3.743,0,0,0,3.043,1.286,5.2,5.2,0,0,0,1.872-.328,6.36,6.36,0,0,0,1.747-1.056l.639,1.366a5.068,5.068,0,0,1-1.89,1.153,7.147,7.147,0,0,1-2.386.392Z" transform="translate(-3188.094 -467.831)"/><path class="b" d="M3233.108,484.423a6,6,0,0,1-3.124-.781,5.162,5.162,0,0,1-2.023-2.236,8.728,8.728,0,0,1,0-6.894,5.174,5.174,0,0,1,2.023-2.227,6.655,6.655,0,0,1,6.256,0,5.156,5.156,0,0,1,2.031,2.227,8.669,8.669,0,0,1-.008,6.894,5.216,5.216,0,0,1-2.032,2.236,6,6,0,0,1-3.123.781Zm0-1.491a3.614,3.614,0,0,0,2.945-1.287,5.66,5.66,0,0,0,1.064-3.7,5.588,5.588,0,0,0-1.064-3.682,4.044,4.044,0,0,0-5.891.009,5.6,5.6,0,0,0-1.065,3.673,5.67,5.67,0,0,0,1.064,3.691,3.6,3.6,0,0,0,2.947,1.3Z" transform="translate(-3215.061 -467.831)"/><path class="b" d="M3273.936,484.6V471.96h5.2a4.852,4.852,0,0,1,3.194.923,3.654,3.654,0,0,1-.026,5.253,4.719,4.719,0,0,1-3.15.958l1.349-.266a1.9,1.9,0,0,1,1.18.381,2.566,2.566,0,0,1,.808,1.216l1.58,4.17h-1.934l-1.58-4.206a1.612,1.612,0,0,0-.763-.95,2.954,2.954,0,0,0-1.277-.239h-2.769V484.6Zm1.809-6.867h3.176a3.247,3.247,0,0,0,2.068-.541,1.967,1.967,0,0,0,.666-1.624,1.932,1.932,0,0,0-.656-1.606,3.329,3.329,0,0,0-2.077-.523h-3.176Z" transform="translate(-3247.212 -468.145)"/><path class="b" d="M3318.779,484.423a6,6,0,0,1-3.123-.781,5.163,5.163,0,0,1-2.023-2.236,8.728,8.728,0,0,1,0-6.894,5.173,5.173,0,0,1,2.023-2.227,6.654,6.654,0,0,1,6.255,0,5.161,5.161,0,0,1,2.032,2.227,8.673,8.673,0,0,1-.009,6.894,5.223,5.223,0,0,1-2.031,2.236,6,6,0,0,1-3.123.781Zm0-1.491a3.614,3.614,0,0,0,2.946-1.287,5.663,5.663,0,0,0,1.065-3.7,5.592,5.592,0,0,0-1.065-3.682,4.044,4.044,0,0,0-5.891.009,5.6,5.6,0,0,0-1.064,3.673,5.671,5.671,0,0,0,1.064,3.691,3.6,3.6,0,0,0,2.945,1.3Z" transform="translate(-3274.062 -467.831)"/><path class="b" d="M3359.6,484.6V471.96h1.384l7.7,10.15-.443.178V471.96h1.721V484.6h-1.4l-7.666-10.133.426-.2V484.59Z" transform="translate(-3306.21 -468.145)"/><path class="b" d="M3400.97,484.6h-1.863l5.625-12.635h1.544L3411.9,484.6h-1.846l-4.809-11.25h.567Zm.568-3.123.674-1.455h6.548l.656,1.455Z" transform="translate(-3333.414 -468.145)"/><path class="b" d="M3443.382,484.6l-5.571-12.635h1.934l4.738,11.073h-.639l4.774-11.073h1.881l-5.572,12.635Z" transform="translate(-3360.069 -468.145)"/><path class="b" d="M3483.98,476.155V463.52h1.827v12.635Zm1.508-13.717H3484.3l1.81-2.733h1.846Z" transform="translate(-3391.865 -459.705)"/><path class="b" d="M3500.281,484.6V471.96h5.2a4.853,4.853,0,0,1,3.194.923,3.654,3.654,0,0,1-.027,5.253,4.715,4.715,0,0,1-3.15.958l1.349-.266a1.909,1.909,0,0,1,1.18.381,2.576,2.576,0,0,1,.808,1.216l1.579,4.17h-1.934l-1.579-4.206a1.615,1.615,0,0,0-.763-.95,2.957,2.957,0,0,0-1.279-.239h-2.767V484.6Zm1.811-6.867h3.176a3.248,3.248,0,0,0,2.067-.541,1.969,1.969,0,0,0,.665-1.624,1.932,1.932,0,0,0-.656-1.606,3.326,3.326,0,0,0-2.076-.523h-3.176Z" transform="translate(-3403.091 -468.145)"/><path class="b" d="M3545.821,484.737a5.185,5.185,0,0,1-3.824-1.3,5.239,5.239,0,0,1-1.3-3.86V471.96h1.792v7.74a3.739,3.739,0,0,0,.843,2.653,3.26,3.26,0,0,0,2.492.9,3.2,3.2,0,0,0,2.458-.9,3.745,3.745,0,0,0,.843-2.644V471.96h1.828v7.613a4.607,4.607,0,0,1-5.133,5.164Z" transform="translate(-3430.921 -468.145)"/><path class="b" d="M3586.41,484.423a9.681,9.681,0,0,1-1.845-.169,6.686,6.686,0,0,1-1.614-.523,6.079,6.079,0,0,1-1.332-.852l.639-1.366a6.729,6.729,0,0,0,1.944,1.082,6.842,6.842,0,0,0,2.227.337,3.829,3.829,0,0,0,2.2-.541,1.726,1.726,0,0,0,.781-1.5,1.3,1.3,0,0,0-.372-.958,2.686,2.686,0,0,0-1.056-.6q-.683-.231-1.606-.444a17.568,17.568,0,0,1-1.828-.488,5.769,5.769,0,0,1-1.437-.683,2.872,2.872,0,0,1-.931-1.012,3.041,3.041,0,0,1-.328-1.473,3.336,3.336,0,0,1,.586-1.934,3.819,3.819,0,0,1,1.642-1.322,6.082,6.082,0,0,1,2.493-.47,7.994,7.994,0,0,1,1.7.177,6.4,6.4,0,0,1,1.508.524,5.152,5.152,0,0,1,1.224.843l-.674,1.366a5.977,5.977,0,0,0-1.774-1.074,5.564,5.564,0,0,0-1.97-.346,3.586,3.586,0,0,0-2.147.568,1.843,1.843,0,0,0-.781,1.579,1.457,1.457,0,0,0,.337,1,2.468,2.468,0,0,0,.985.63,12.118,12.118,0,0,0,1.553.461q1.011.231,1.863.506a7.268,7.268,0,0,1,1.49.657,2.866,2.866,0,0,1,.994.959,2.672,2.672,0,0,1,.355,1.428,3.2,3.2,0,0,1-.585,1.917,3.785,3.785,0,0,1-1.668,1.269,6.645,6.645,0,0,1-2.573.452Z" transform="translate(-3459.106 -467.831)"/></g></g></g></svg>