<svg xmlns="http://www.w3.org/2000/svg" width="24" height="24" viewBox="0 0 24 24"><defs><style>.a{fill:#fff;}</style></defs><g transform="translate(0 -0.001)"><g transform="translate(17.28 21.518)"><path class="a" d="M369.522,459.27a.469.469,0,0,0-.641-.17l-.018.01a.469.469,0,1,0,.47.811l.018-.01A.469.469,0,0,0,369.522,459.27Z" transform="translate(-368.63 -459.036)"/></g><g transform="translate(0 0.001)"><g transform="translate(0 0)"><path class="a" d="M22.392,6A12,12,0,0,0,.414,8.9a12,12,0,0,0,15.88,14.31.469.469,0,1,0-.336-.875A10.989,10.989,0,0,1,5.383,20.88l.42-2.192.2-.066a1.46,1.46,0,0,0,.936-1.837l-.148-.457a.518.518,0,0,1,0-.323,1.458,1.458,0,0,0-1.106-1.886L4.63,13.912,2.589,12.36a.469.469,0,0,0-.429-.073l-1.2.388a11.05,11.05,0,0,1,0-1.28c.047.044.078.074.1.093a.491.491,0,0,0,.458.235,6.808,6.808,0,0,0,.84-.1c.4-.058.789-.124.793-.125a.469.469,0,0,0,.31-.726l-.575-.843.823-.589A.469.469,0,0,0,3.843,9.2L5.119,6.969l.514-.551a1.98,1.98,0,0,0,.382-2.1,2.156,2.156,0,0,0-.854-1.006A11.046,11.046,0,0,1,11.874.947L11.037,2l-3.1,1.088a.469.469,0,0,0-.278.264l-.867,2.1A.469.469,0,0,0,6.84,5.9L8.106,7.674a4.455,4.455,0,0,0-.569.706c-.092.131-.18.255-.24.325l-.157.178a4.386,4.386,0,0,0-.754,1.046,2.793,2.793,0,0,0,.232,2.824A2.631,2.631,0,0,0,9.1,13.818a3.65,3.65,0,0,0,.458-.092c.4-.1.529-.109.658.011.063.059.068.07.067.269a1.822,1.822,0,0,0,.042.464,1.481,1.481,0,0,0,.4.647,1.05,1.05,0,0,1,.17.217,1.167,1.167,0,0,1-.057.97l-.036.112a2.631,2.631,0,0,0,.344,1.881c.085.186.165.362.217.518.421,1.251.737,1.537.991,1.652a.977.977,0,0,0,.409.087,2.621,2.621,0,0,0,1.7-1.025,1.441,1.441,0,0,0,.29-.683.747.747,0,0,1,.06-.209,1.228,1.228,0,0,1,.154-.2,1.626,1.626,0,0,0,.383-.637,1.032,1.032,0,0,1,.318-.5l.1-.111a1.5,1.5,0,0,0,.293-1.748c-.143-.462.107-.758.713-1.322a5.063,5.063,0,0,0,.744-.8,1.012,1.012,0,0,0,.2-.939c-.17-.393-.6-.459-.947-.512a1.553,1.553,0,0,1-.409-.1,2.216,2.216,0,0,1-.639-.968c-.034-.076-.068-.151-.1-.224-.061-.13-.122-.288-.186-.455a3.932,3.932,0,0,0-.693-1.29,2.994,2.994,0,0,0-1.345-.6c-.165-.045-.322-.087-.425-.125a.468.468,0,0,0-.269-.017,1.216,1.216,0,0,0-.5.207.582.582,0,0,0-.167.225,5.361,5.361,0,0,1-.553-.336l-.009-.006a.665.665,0,0,0-.042-.451c-.262-.554-1.131-.511-1.3-.5-.1.008-.221.013-.351.017-.2.007-.431.015-.655.041l.012-.032a1.2,1.2,0,0,1,1.125-.792h.266a.469.469,0,0,0,0-.937h-.266A2.14,2.14,0,0,0,8.453,6.547l-.7-.979L8.442,3.9l3.033-1.063a.469.469,0,0,0,.211-.15L13.034,1a11.054,11.054,0,0,1,8.546,5.478,10.938,10.938,0,0,1,1.1,2.683l-.2.177a1.252,1.252,0,0,0-.417.911s0,.008,0,.011l-.324-.89A1.17,1.17,0,0,0,21.534,9l-.577-.676a1.175,1.175,0,0,0-.894-.412h-.707a.679.679,0,0,0-.565,1.055l.072.107A5.2,5.2,0,0,1,17.315,10l-.969-1.856V7.727a.468.468,0,0,0-.145-.339l-.872-.833a.469.469,0,0,0-.168-.1l-.785-.276a.469.469,0,0,0-.311.884l.69.243.654.625v.329a.469.469,0,0,0,.053.217L16.675,10.8a.468.468,0,0,0,.578.223l.353-.13a6.134,6.134,0,0,0,2.2-1.408.469.469,0,0,0,.059-.591l-.025-.037h.224a.239.239,0,0,1,.182.084l.577.676a.238.238,0,0,1,.043.073l.637,1.752a.469.469,0,0,0,.772.171l.3-.3a1.463,1.463,0,0,0,.388-.7A11.1,11.1,0,0,1,18.843,20.7a.469.469,0,0,0,.579.737A12,12,0,0,0,22.392,6ZM2.217,13.255l1.933,1.47a.468.468,0,0,0,.194.087l1.165.228a.521.521,0,0,1,.395.673,1.449,1.449,0,0,0,0,.905l.148.457a.521.521,0,0,1-.334.656l-.466.151a.469.469,0,0,0-.315.358L4.56,20.2a11.183,11.183,0,0,1-2.135-2.663,11,11,0,0,1-1.362-3.9ZM4.948,5.779,4.4,6.369a.471.471,0,0,0-.064.087L3.081,8.642l-1.113.8a.469.469,0,0,0-.115.645l.416.611c-.24.036-.455.065-.6.081l-.086-.081c-.111-.1-.266-.242-.5-.444a11.079,11.079,0,0,1,3.3-6.27,1.219,1.219,0,0,1,.76.7A1.04,1.04,0,0,1,4.948,5.779ZM8.77,8.34a3.006,3.006,0,0,1,1.049-.147c.142-.005.276-.01.4-.02a1.275,1.275,0,0,1,.2,0,.469.469,0,0,0,.216.583c.088.047.21.129.34.215a2.7,2.7,0,0,0,1.172.546.778.778,0,0,0,.637-.265l.02-.02a.5.5,0,0,0,.125-.154l.234.065a3.121,3.121,0,0,1,.908.336,3.327,3.327,0,0,1,.5.985c.07.182.137.355.212.514.032.068.064.139.1.21a2.927,2.927,0,0,0,.982,1.369,1.938,1.938,0,0,0,.78.238l.1.016a4.533,4.533,0,0,1-.595.624c-.58.54-1.3,1.213-.97,2.286.157.507.164.561-.088.836l-.1.1a1.926,1.926,0,0,0-.528.857.732.732,0,0,1-.191.3,2.093,2.093,0,0,0-.262.347,1.519,1.519,0,0,0-.17.5.574.574,0,0,1-.1.275,2.732,2.732,0,0,1-.592.523.773.773,0,0,1-.393.156,3.344,3.344,0,0,1-.5-1.1c-.068-.2-.161-.407-.252-.606a2.01,2.01,0,0,1-.306-1.205l.035-.107a2.048,2.048,0,0,0,.031-1.623,1.69,1.69,0,0,0-.341-.486.871.871,0,0,1-.179-.238,1.013,1.013,0,0,1-.015-.237,1.163,1.163,0,0,0-.364-.96,1.51,1.51,0,0,0-1.524-.237,2.94,2.94,0,0,1-.342.071,1.684,1.684,0,0,1-1.613-.682,1.856,1.856,0,0,1-.145-1.876,3.559,3.559,0,0,1,.607-.824l.164-.186c.091-.105.192-.248.3-.4A3.388,3.388,0,0,1,8.77,8.34Z" transform="translate(0 -0.001)"/></g></g><g transform="translate(16.414 14.941)"><path class="a" d="M352.956,319.91l-.226-.85a.469.469,0,0,0-.865-.1c-.051.095-.1.2-.142.292a2.014,2.014,0,0,1-.234.425,1.035,1.035,0,0,1-.275.163,1.289,1.289,0,0,0-.781.759,1.374,1.374,0,0,0-.031.661.427.427,0,0,1-.012.276l0,.011a1.577,1.577,0,0,0-.038,1.556.976.976,0,0,0,.8.5.758.758,0,0,0,.125-.01c.478-.078.838-.575,1.131-1.565l.551-1.858A.468.468,0,0,0,352.956,319.91Zm-1.454,1.845a2.841,2.841,0,0,1-.359.845l-.029-.039c-.09-.128.044-.442.133-.65l0-.011a1.319,1.319,0,0,0,.077-.781.491.491,0,0,1,0-.243c.018-.058.128-.115.294-.2.073-.035.154-.074.236-.122Z" transform="translate(-350.15 -318.712)"/></g><g transform="translate(12.002 5.535)"><path class="a" d="M256.7,118.1l-.032-.011a.469.469,0,1,0-.31.885l.032.011a.469.469,0,0,0,.31-.885Z" transform="translate(-256.044 -118.059)"/></g></g></svg>