<svg xmlns="http://www.w3.org/2000/svg" width="21.042" height="21.042" viewBox="0 0 21.042 21.042"><defs><style>.a{fill:#51983b;}</style></defs><path class="a" d="M20.56,18.235,15.074,12.75a8.146,8.146,0,0,0,1.364-4.53,8.219,8.219,0,1,0-8.219,8.219,8.146,8.146,0,0,0,4.53-1.364l1.516,1.516h0l3.969,3.969a1.644,1.644,0,1,0,2.325-2.325Zm-8-4.027h0a7.4,7.4,0,1,1,1.652-1.652A7.433,7.433,0,0,1,12.557,14.208Zm.862.373a8.247,8.247,0,0,0,1.162-1.162l1.166,1.166a9.976,9.976,0,0,1-1.162,1.162Zm6.56,5.4a.821.821,0,0,1-1.162,0L15.167,16.33a10.8,10.8,0,0,0,1.162-1.162l3.649,3.649a.821.821,0,0,1,0,1.162Z"/><g transform="translate(1.644 1.644)"><path class="a" d="M46.576,40a6.576,6.576,0,1,0,6.576,6.576A6.583,6.583,0,0,0,46.576,40Zm0,12.329a5.754,5.754,0,1,1,5.754-5.754A5.76,5.76,0,0,1,46.576,52.329Z" transform="translate(-40 -40)"/></g></svg>