<svg xmlns="http://www.w3.org/2000/svg" width="50" height="49.999" viewBox="0 0 50 49.999"><defs><style>.a{fill:#252525;fill-rule:evenodd;}.b{fill:#fff;}</style></defs><g transform="translate(-47.575 -501.086)"><path class="a" d="M58.577,501.086h28a11.045,11.045,0,0,1,11,11v27.971a11.051,11.051,0,0,1-11,11.027h-28a11.051,11.051,0,0,1-11-11.027V512.088a11.045,11.045,0,0,1,11-11Z" transform="translate(0)"/></g><path class="b" d="M255.693,137.337H227.375a4.72,4.72,0,0,0-4.72,4.72v18.879a4.72,4.72,0,0,0,4.72,4.72h28.319a4.72,4.72,0,0,0,4.72-4.72V142.057A4.72,4.72,0,0,0,255.693,137.337Zm-7.769,12.595,9.991-8.562a2.275,2.275,0,0,1,.138.687v18.879a2.237,2.237,0,0,1-.095.463Zm7.769-10.235a2.187,2.187,0,0,1,.442.09l-14.6,12.516-14.6-12.516a2.182,2.182,0,0,1,.442-.09Zm-30.585,21.7a2.212,2.212,0,0,1-.093-.461V142.057a2.269,2.269,0,0,1,.14-.687l9.987,8.559Zm2.267,1.9a2.276,2.276,0,0,1-.673-.136l10.232-11.694,3.833,3.284a1.173,1.173,0,0,0,1.535,0l3.832-3.284,10.232,11.693a2.255,2.255,0,0,1-.673.136Z" transform="translate(-216.655 -126.337)"/></svg>