<svg xmlns="http://www.w3.org/2000/svg" width="50" height="49.999" viewBox="0 0 50 49.999"><defs><style>.a{fill:#252525;fill-rule:evenodd;}.b{fill:#fff;}</style></defs><path class="a" d="M58.577,501.086h28a11.045,11.045,0,0,1,11,11v27.971a11.051,11.051,0,0,1-11,11.027h-28a11.051,11.051,0,0,1-11-11.027V512.088a11.045,11.045,0,0,1,11-11Z" transform="translate(-47.575 -501.086)"/><g transform="translate(7.983 7.983)"><g transform="translate(0)"><path class="b" d="M104.836,568.033H90.176a9.7,9.7,0,0,1-9.687-9.686V543.685A9.7,9.7,0,0,1,90.176,534h14.66a9.7,9.7,0,0,1,9.687,9.686v14.661A9.7,9.7,0,0,1,104.836,568.033Zm-14.66-31.117a6.777,6.777,0,0,0-6.769,6.769v14.661a6.777,6.777,0,0,0,6.769,6.769h14.66a6.777,6.777,0,0,0,6.769-6.769V543.685a6.777,6.777,0,0,0-6.769-6.769Z" transform="translate(-80.489 -533.999)"/></g><g transform="translate(8.303 8.302)"><path class="b" d="M123.434,585.658a8.714,8.714,0,1,1,8.714-8.715A8.724,8.724,0,0,1,123.434,585.658Zm0-14.511a5.8,5.8,0,1,0,5.8,5.8A5.8,5.8,0,0,0,123.434,571.147Z" transform="translate(-114.72 -568.229)"/></g><g transform="translate(24.01 5.709)"><path class="b" d="M183.67,559.633a2.095,2.095,0,1,1-2.094-2.1A2.094,2.094,0,0,1,183.67,559.633Z" transform="translate(-179.481 -557.538)"/></g></g></svg>