<svg xmlns="http://www.w3.org/2000/svg" width="24" height="24" viewBox="0 0 24 24"><defs><style>.a{fill:#c42f6a;}.b{fill:none;}</style></defs><g transform="translate(1 1)"><g transform="translate(1 1)"><path class="a" d="M19.542,17.333l-5.214-5.214a7.742,7.742,0,0,0,1.3-4.306,7.813,7.813,0,1,0-7.812,7.813,7.743,7.743,0,0,0,4.306-1.3l1.441,1.441h0l3.772,3.772a1.562,1.562,0,1,0,2.209-2.209ZM11.935,13.5h0a7.038,7.038,0,1,1,1.57-1.57A7.065,7.065,0,0,1,11.935,13.5Zm.82.354a7.839,7.839,0,0,0,1.1-1.1l1.108,1.108a9.482,9.482,0,0,1-1.1,1.1ZM18.99,18.99a.781.781,0,0,1-1.1,0l-3.469-3.469a10.265,10.265,0,0,0,1.1-1.1l3.469,3.469a.781.781,0,0,1,0,1.1Z"/></g><g transform="translate(2.562 2.563)"><path class="a" d="M46.25,40a6.25,6.25,0,1,0,6.25,6.25A6.257,6.257,0,0,0,46.25,40Zm0,11.719a5.469,5.469,0,1,1,5.469-5.469A5.475,5.475,0,0,1,46.25,51.719Z" transform="translate(-40 -40)"/></g></g><rect class="b" width="24" height="24"/></svg>