<svg id="Component_6_1" data-name="Component 6 – 1" xmlns="http://www.w3.org/2000/svg" width="50" height="49.999" viewBox="0 0 50 49.999">
  <g id="ic_about_email">
    <g id="Group_50" data-name="Group 50" transform="translate(-47.575 -501.086)">
      <path id="Path_167" data-name="Path 167" d="M58.577,501.086h28a11.045,11.045,0,0,1,11,11v27.971a11.051,11.051,0,0,1-11,11.027h-28a11.051,11.051,0,0,1-11-11.027V512.088a11.045,11.045,0,0,1,11-11Z" transform="translate(0)" fill="#252525" fill-rule="evenodd"/>
    </g>
  </g>
  <path id="icons8-twitter" d="M31.941,8.695A13.133,13.133,0,0,1,28.168,9.73,6.582,6.582,0,0,0,31.056,6.1a13.183,13.183,0,0,1-4.17,1.591A6.568,6.568,0,0,0,15.7,13.678,18.641,18.641,0,0,1,2.169,6.817,6.579,6.579,0,0,0,4.2,15.586a6.559,6.559,0,0,1-2.975-.823v.082a6.574,6.574,0,0,0,5.265,6.439,6.569,6.569,0,0,1-1.728.229,6.324,6.324,0,0,1-1.237-.12,6.58,6.58,0,0,0,6.133,4.561,13.161,13.161,0,0,1-8.153,2.808,12.909,12.909,0,0,1-1.564-.092A18.549,18.549,0,0,0,10,31.622c12.076,0,18.68-10,18.68-18.677,0-.284-.007-.571-.017-.85A13.346,13.346,0,0,0,31.941,8.695Z" transform="translate(9.059 6.383)" fill="#fff"/>
</svg>
