<?xml version="1.0"?>
<svg xmlns="http://www.w3.org/2000/svg" viewBox="0 0 64 64" width="512" height="512"><g id="Outline"><path d="M25,34a3,3,0,1,0-3,3A3,3,0,0,0,25,34Zm-4,0a1,1,0,1,1,1,1A1,1,0,0,1,21,34Z"/><path d="M26,40c-2.89,0-6,.938-6,3s3.11,3,6,3,6-.938,6-3S28.89,40,26,40Zm0,4c-2.347,0-3.717-.673-3.975-1,.258-.327,1.628-1,3.975-1s3.717.673,3.975,1C29.717,43.327,28.347,44,26,44Z"/><path d="M61.707,10.293l-8-8a1,1,0,0,0-1.414,1.414L53.586,5,50,8.586,48.707,7.293a1,1,0,1,0-1.414,1.414L47.586,9,33.293,23.293a1,1,0,0,0,0,1.414l.49.49-.442.884A14.1,14.1,0,0,0,29,24.284v-3.1A3.794,3.794,0,0,0,31,18c0-2.206-2.243-4-5-4s-5,1.794-5,4a3.794,3.794,0,0,0,2,3.18v3.047a13.892,13.892,0,0,0-4.633,1.9l-2.14-2.14a3.8,3.8,0,0,0-.833-3.663c-1.56-1.559-4.416-1.241-6.365.707s-2.266,4.805-.707,6.365a3.526,3.526,0,0,0,2.538.99,4.716,4.716,0,0,0,1.128-.154l2.136,2.137A13.923,13.923,0,0,0,12.221,35H9.18A3.794,3.794,0,0,0,6,33c-2.206,0-4,2.243-4,5s1.794,5,4,5a3.794,3.794,0,0,0,3.18-2h3.089a13.928,13.928,0,0,0,1.938,4.551l-2.223,2.222a3.8,3.8,0,0,0-3.662.833c-1.559,1.56-1.242,4.415.707,6.365a5.536,5.536,0,0,0,3.827,1.7,3.524,3.524,0,0,0,2.538-.99,3.8,3.8,0,0,0,.834-3.663l2.258-2.259A13.876,13.876,0,0,0,23,51.575V54.82A3.794,3.794,0,0,0,21,58c0,2.206,2.243,4,5,4s5-1.794,5-4a3.794,3.794,0,0,0-2-3.18v-3.3a13.9,13.9,0,0,0,4.43-1.85l2.342,2.342a3.8,3.8,0,0,0,.834,3.663,3.526,3.526,0,0,0,2.538.99,5.538,5.538,0,0,0,3.827-1.7c1.949-1.95,2.266-4.8.707-6.365a3.8,3.8,0,0,0-3.663-.833l-2.348-2.348A13.9,13.9,0,0,0,39.528,41H42.82A3.794,3.794,0,0,0,46,43c2.206,0,4-2.243,4-5s-1.794-5-4-5a3.794,3.794,0,0,0-3.18,2H39.568a14.019,14.019,0,0,0-1.7-4.313l.94-.47.49.49a1,1,0,0,0,1.414,0L55,16.414l.293.293a1,1,0,0,0,1.414-1.414L55.414,14,59,10.414l1.293,1.293a1,1,0,0,0,1.414-1.414ZM6,41c-1.084,0-2-1.374-2-3s.916-3,2-3,2,1.374,2,3S7.084,41,6,41Zm40-6c1.084,0,2,1.374,2,3s-.916,3-2,3-2-1.374-2-3S44.916,35,46,35ZM35.2,29.783l-.98-.98,1.057-2.115,2.038,2.038ZM26,16c1.626,0,3,.916,3,2s-1.374,2-3,2-3-.916-3-2S24.374,16,26,16ZM9.736,25.979c-.766-.766-.442-2.386.707-3.536a3.6,3.6,0,0,1,2.41-1.123,1.556,1.556,0,0,1,1.126.416c.767.767.443,2.386-.707,3.536S10.5,26.745,9.736,25.979Zm4.178,1.349a5.838,5.838,0,0,0,1.422-1.406l1.41,1.41a13.981,13.981,0,0,0-1.413,1.415Zm.065,26.936c-.766.767-2.386.443-3.536-.707s-1.473-2.77-.707-3.536,2.387-.444,3.536.707S14.746,53.5,13.979,54.264Zm1.357-4.186a6.258,6.258,0,0,0-.65-.765,6.166,6.166,0,0,0-.764-.649l1.508-1.508a14.1,14.1,0,0,0,1.426,1.4ZM26,60c-1.626,0-3-.916-3-2s1.374-2,3-2,3,.916,3,2S27.626,60,26,60ZM41.137,49.6a1.556,1.556,0,0,1,1.127.417c.766.766.442,2.386-.707,3.536s-2.77,1.474-3.536.707-.443-2.386.707-3.536A3.592,3.592,0,0,1,41.137,49.6Zm-3.059-.94a6.166,6.166,0,0,0-.764.649,6.258,6.258,0,0,0-.65.765l-1.62-1.619a14.105,14.105,0,0,0,1.413-1.417ZM37.511,35H36a1,1,0,0,0,0,2h6.081a6.213,6.213,0,0,0,0,2H36a1,1,0,0,0,0,2h1.487A12.033,12.033,0,0,1,29,49.468V49a1,1,0,0,0-2,0v5.081a6.213,6.213,0,0,0-2,0V49a1,1,0,0,0-2,0v.533A12.03,12.03,0,0,1,14.313,41H16a1,1,0,0,0,0-2H9.919a6.213,6.213,0,0,0,0-2H16a1,1,0,0,0,0-2H14.257A12.03,12.03,0,0,1,23,26.266V28a1,1,0,0,0,2,0V21.919a6.213,6.213,0,0,0,2,0V28a1,1,0,0,0,2,0V26.324a12.052,12.052,0,0,1,3.445,1.55l-.34.679a1,1,0,0,0,.188,1.154l.293.293-6.294,6.293a1,1,0,0,0,1.415,1.414L34,31.414l.293.293A1,1,0,0,0,35,32a1.011,1.011,0,0,0,.447-.105l.623-.312A12.127,12.127,0,0,1,37.511,35ZM40,28.586,35.414,24l1.446-1.446.634.635a1,1,0,0,0,1.414-1.414l-.634-.635,1.487-1.487.635.634a1,1,0,0,0,1.414-1.414l-.635-.634,1.488-1.488.634.635a1,1,0,0,0,1.414-1.414l-.634-.635,1.487-1.487.635.634a1,1,0,1,0,1.414-1.414l-.634-.634L49,10.414,53.586,15Zm14-16L51.414,10,55,6.414,57.586,9Z"/></g></svg>
