<svg xmlns="http://www.w3.org/2000/svg" width="400" height="60.672" viewBox="0 0 400 60.672">
  <g id="logo_thegoodnews" transform="translate(-2047.25 -2377.082)">
    <g id="Grupo_63" data-name="Grupo 63" transform="translate(2109.106 2389.436)">
      <path id="Caminho_809" data-name="Caminho 809" d="M2087.368,2412.6v-24.112h-9.19v-5.234h24.894v5.234h-9.192V2412.6Z" transform="translate(-2078.178 -2383.259)" fill="#fff"/>
      <path id="Caminho_810" data-name="Caminho 810" d="M2091.8,2412.6v-29.346h6.306V2412.6Zm2.062-12.364v-5.07H2115.5v5.07Zm17.846,12.364v-29.346h6.306V2412.6Z" transform="translate(-2064.552 -2383.259)" fill="#fff"/>
      <path id="Caminho_811" data-name="Caminho 811" d="M2106.53,2412.6v-29.346h20.236v4.988h-13.93v6.924H2125.9v5.028h-13.066v7.418h13.93v4.988Z" transform="translate(-2049.826 -2383.259)" fill="#fff"/>
    </g>
    <g id="Grupo_64" data-name="Grupo 64" transform="translate(2197.76 2389.066)">
      <path id="Caminho_812" data-name="Caminho 812" d="M2137.673,2413.16a17,17,0,0,1-8.1-1.812,12.55,12.55,0,0,1-5.234-5.194,16.709,16.709,0,0,1-1.834-8.078,16.532,16.532,0,0,1,1.834-8,12.659,12.659,0,0,1,5.172-5.194,16.266,16.266,0,0,1,7.874-1.812,19.644,19.644,0,0,1,5.894.864,12.316,12.316,0,0,1,4.532,2.432l-2.06,4.616a16.254,16.254,0,0,0-4.018-2.142,12.781,12.781,0,0,0-4.184-.66q-4.245,0-6.368,2.472t-2.122,7.42q0,5.07,2.2,7.6t6.7,2.534a18.967,18.967,0,0,0,3.154-.266,17.965,17.965,0,0,0,3.07-.8l-1.4,2.1v-8.162h-5.77v-4.492H2148.6v14.384a18.832,18.832,0,0,1-3.236,1.2,26.739,26.739,0,0,1-3.75.742A31.538,31.538,0,0,1,2137.673,2413.16Z" transform="translate(-2122.505 -2383.074)" fill="#fff"/>
      <path id="Caminho_813" data-name="Caminho 813" d="M2151.4,2413.16a15,15,0,0,1-7.624-1.854,12.587,12.587,0,0,1-4.968-5.234,19.028,19.028,0,0,1,0-15.95,12.457,12.457,0,0,1,4.968-5.214,16.722,16.722,0,0,1,15.228,0,12.36,12.36,0,0,1,4.926,5.214,19.247,19.247,0,0,1,0,15.95,12.489,12.489,0,0,1-4.926,5.234A14.888,14.888,0,0,1,2151.4,2413.16Zm0-4.986a7.058,7.058,0,0,0,5.75-2.576q2.121-2.577,2.122-7.522t-2.122-7.48a7.809,7.809,0,0,0-11.52,0q-2.1,2.532-2.1,7.48,0,4.986,2.1,7.542A7.065,7.065,0,0,0,2151.4,2408.174Z" transform="translate(-2107.949 -2383.074)" fill="#fff"/>
      <path id="Caminho_814" data-name="Caminho 814" d="M2166.992,2413.16a15,15,0,0,1-7.626-1.854,12.593,12.593,0,0,1-4.966-5.234,19.028,19.028,0,0,1,0-15.95,12.462,12.462,0,0,1,4.966-5.214,16.726,16.726,0,0,1,15.23,0,12.37,12.37,0,0,1,4.926,5.214,19.247,19.247,0,0,1,0,15.95,12.5,12.5,0,0,1-4.926,5.234A14.889,14.889,0,0,1,2166.992,2413.16Zm0-4.986a7.061,7.061,0,0,0,5.75-2.576q2.121-2.577,2.122-7.522t-2.122-7.48a7.809,7.809,0,0,0-11.52,0q-2.1,2.532-2.1,7.48,0,4.986,2.1,7.542A7.064,7.064,0,0,0,2166.992,2408.174Z" transform="translate(-2092.362 -2383.074)" fill="#fff"/>
      <path id="Caminho_815" data-name="Caminho 815" d="M2168.4,2412.6v-29.346h11.376a18.216,18.216,0,0,1,8.264,1.732,12.162,12.162,0,0,1,5.276,5.006,15.945,15.945,0,0,1,1.834,7.894,16.172,16.172,0,0,1-1.814,7.934,12.174,12.174,0,0,1-5.254,5.028,18.137,18.137,0,0,1-8.306,1.752Zm6.43-5.194h4.492q4.7,0,7.048-2.37t2.35-7.15q0-9.438-9.4-9.438h-4.492Z" transform="translate(-2076.608 -2382.889)" fill="#fff"/>
    </g>
    <g id="Grupo_65" data-name="Grupo 65" transform="translate(2328.79 2389.066)">
      <path id="Caminho_816" data-name="Caminho 816" d="M2188.02,2412.6v-29.346h4.74l15.826,20.2-1.2.784v-20.98h6.06V2412.6h-4.782l-15.744-20.114,1.112-.866v20.98Z" transform="translate(-2188.02 -2382.889)" fill="#fff"/>
      <path id="Caminho_817" data-name="Caminho 817" d="M2202.354,2412.6v-29.346h20.236v4.988h-13.93v6.924h13.066v5.028H2208.66v7.418h13.93v4.988Z" transform="translate(-2173.686 -2382.889)" fill="#fff"/>
      <path id="Caminho_818" data-name="Caminho 818" d="M2223.871,2412.6l-10.428-29.346H2220l7.542,22.71h-1.648l7.954-22.71h4.494l7.624,22.71h-1.442l7.666-22.71h6.14L2247.9,2412.6h-5.152l-7.338-20.856h1.032l-7.42,20.856Z" transform="translate(-2162.597 -2382.889)" fill="#fff"/>
      <path id="Caminho_819" data-name="Caminho 819" d="M2246.739,2413.16a24.024,24.024,0,0,1-4.348-.39,20.052,20.052,0,0,1-3.978-1.154,13.379,13.379,0,0,1-3.214-1.834l2.1-4.618a16.618,16.618,0,0,0,4.534,2.268,16.336,16.336,0,0,0,4.946.742,8.41,8.41,0,0,0,4.306-.906,2.808,2.808,0,0,0,1.506-2.516,2.257,2.257,0,0,0-.62-1.606,5.054,5.054,0,0,0-1.978-1.154,29.128,29.128,0,0,0-3.626-.99,30.167,30.167,0,0,1-4.864-1.36,11.921,11.921,0,0,1-3.276-1.814,6.145,6.145,0,0,1-1.834-2.41,8.206,8.206,0,0,1-.578-3.194,7.936,7.936,0,0,1,1.464-4.678,9.847,9.847,0,0,1,4.08-3.278,14.619,14.619,0,0,1,6.12-1.194,20.333,20.333,0,0,1,4.1.412,18.245,18.245,0,0,1,3.688,1.154,10.119,10.119,0,0,1,2.844,1.812l-2.06,4.618a14.518,14.518,0,0,0-4.122-2.268,13.288,13.288,0,0,0-4.37-.742,7.015,7.015,0,0,0-4,1.01,3.152,3.152,0,0,0-1.482,2.74,2.345,2.345,0,0,0,.576,1.608,4.835,4.835,0,0,0,1.916,1.176,28.386,28.386,0,0,0,3.69,1.05,30.891,30.891,0,0,1,4.78,1.36,13.118,13.118,0,0,1,3.318,1.794,6.322,6.322,0,0,1,1.916,2.348,7.222,7.222,0,0,1,.62,3.07,7.913,7.913,0,0,1-1.444,4.762,9.188,9.188,0,0,1-4.162,3.09A17.593,17.593,0,0,1,2246.739,2413.16Z" transform="translate(-2140.841 -2383.074)" fill="#fff"/>
    </g>
    <g id="Grupo_66" data-name="Grupo 66" transform="translate(2328.386 2421.882)">
      <path id="Caminho_820" data-name="Caminho 820" d="M2193.426,2413.6a5.757,5.757,0,0,1-2.992-.748,4.932,4.932,0,0,1-1.936-2.142,7.466,7.466,0,0,1-.68-3.314,7.363,7.363,0,0,1,.68-3.3,4.953,4.953,0,0,1,1.936-2.124,5.757,5.757,0,0,1,2.992-.748,6.693,6.693,0,0,1,2.294.382,4.907,4.907,0,0,1,1.818,1.148l-.526,1.07a5.826,5.826,0,0,0-1.716-1.07,5.157,5.157,0,0,0-1.854-.322,3.831,3.831,0,0,0-3.084,1.29,5.522,5.522,0,0,0-1.1,3.67,5.6,5.6,0,0,0,1.088,3.7,3.8,3.8,0,0,0,3.092,1.3,5.168,5.168,0,0,0,1.854-.322,5.88,5.88,0,0,0,1.716-1.07l.526,1.07a4.884,4.884,0,0,1-1.818,1.146A6.658,6.658,0,0,1,2193.426,2413.6Z" transform="translate(-2187.818 -2397.732)" fill="#fff"/>
      <path id="Caminho_821" data-name="Caminho 821" d="M2198.847,2413.6a5.549,5.549,0,0,1-2.932-.748,4.936,4.936,0,0,1-1.9-2.142,7.51,7.51,0,0,1-.67-3.3,7.591,7.591,0,0,1,.662-3.306,4.908,4.908,0,0,1,1.894-2.132,6.171,6.171,0,0,1,5.89,0,4.886,4.886,0,0,1,1.9,2.132,8.512,8.512,0,0,1-.008,6.6,4.936,4.936,0,0,1-1.9,2.142A5.547,5.547,0,0,1,2198.847,2413.6Zm0-1.19a3.663,3.663,0,0,0,2.99-1.3,5.7,5.7,0,0,0,1.07-3.714,5.619,5.619,0,0,0-1.07-3.694,4.126,4.126,0,0,0-5.99.008,5.6,5.6,0,0,0-1.08,3.686,5.675,5.675,0,0,0,1.08,3.706A3.674,3.674,0,0,0,2198.847,2412.414Z" transform="translate(-2182.295 -2397.732)" fill="#fff"/>
      <path id="Caminho_822" data-name="Caminho 822" d="M2199.934,2413.4v-12.1h4.808a4.594,4.594,0,0,1,3,.866,3.064,3.064,0,0,1,1.044,2.5,3.032,3.032,0,0,1-1.062,2.456,4.5,4.5,0,0,1-2.982.892l1.258-.238a1.806,1.806,0,0,1,1.138.366,2.5,2.5,0,0,1,.766,1.164l1.528,4.1h-1.478l-1.5-4.028a1.74,1.74,0,0,0-.79-1.012,3.047,3.047,0,0,0-1.334-.246h-3.024v5.286Zm1.376-6.44h3.314a3.215,3.215,0,0,0,2.1-.578,2.091,2.091,0,0,0,.688-1.7,2.026,2.026,0,0,0-.68-1.674,3.307,3.307,0,0,0-2.106-.552h-3.314Z" transform="translate(-2175.702 -2397.664)" fill="#fff"/>
      <path id="Caminho_823" data-name="Caminho 823" d="M2210.876,2413.6a5.542,5.542,0,0,1-2.93-.748,4.936,4.936,0,0,1-1.9-2.142,7.51,7.51,0,0,1-.67-3.3,7.6,7.6,0,0,1,.662-3.306,4.912,4.912,0,0,1,1.894-2.132,6.168,6.168,0,0,1,5.888,0,4.879,4.879,0,0,1,1.9,2.132,8.512,8.512,0,0,1-.008,6.6,4.936,4.936,0,0,1-1.9,2.142A5.549,5.549,0,0,1,2210.876,2413.6Zm0-1.19a3.664,3.664,0,0,0,2.992-1.3,5.7,5.7,0,0,0,1.07-3.714,5.619,5.619,0,0,0-1.07-3.694,4.126,4.126,0,0,0-5.99.008,5.6,5.6,0,0,0-1.08,3.686,5.675,5.675,0,0,0,1.08,3.706A3.673,3.673,0,0,0,2210.876,2412.414Z" transform="translate(-2170.264 -2397.732)" fill="#fff"/>
      <path id="Caminho_824" data-name="Caminho 824" d="M2211.965,2413.4v-12.1h1.07l7.714,10.282-.408.1V2401.3h1.326v12.1h-1.088l-7.7-10.264.392-.12V2413.4Z" transform="translate(-2163.671 -2397.664)" fill="#fff"/>
      <path id="Caminho_825" data-name="Caminho 825" d="M2218.967,2413.4h-1.446l5.32-12.1h1.222l5.32,12.1h-1.428l-4.74-11.08h.51Zm.814-3.11.494-1.156h6.354l.494,1.156Z" transform="translate(-2158.115 -2397.664)" fill="#fff"/>
      <path id="Caminho_826" data-name="Caminho 826" d="M2228.184,2413.4l-5.284-12.1h1.478l4.706,10.978h-.56l4.724-10.978h1.444l-5.284,12.1Z" transform="translate(-2152.736 -2397.664)" fill="#fff"/>
      <path id="Caminho_827" data-name="Caminho 827" d="M2229.365,2415.218v-12.1h1.394v12.1Zm1.174-13.136h-.97l1.734-2.6h1.512Z" transform="translate(-2146.271 -2399.482)" fill="#fff"/>
      <path id="Caminho_828" data-name="Caminho 828" d="M2231.37,2413.4v-12.1h4.81a4.6,4.6,0,0,1,3,.866,3.064,3.064,0,0,1,1.044,2.5,3.032,3.032,0,0,1-1.062,2.456,4.5,4.5,0,0,1-2.982.892l1.258-.238a1.814,1.814,0,0,1,1.138.366,2.494,2.494,0,0,1,.764,1.164l1.53,4.1h-1.478l-1.5-4.028a1.74,1.74,0,0,0-.79-1.012,3.055,3.055,0,0,0-1.334-.246h-3.024v5.286Zm1.378-6.44h3.312a3.221,3.221,0,0,0,2.1-.578,2.1,2.1,0,0,0,.688-1.7,2.025,2.025,0,0,0-.68-1.674,3.313,3.313,0,0,0-2.108-.552h-3.312Z" transform="translate(-2144.266 -2397.664)" fill="#fff"/>
      <path id="Caminho_829" data-name="Caminho 829" d="M2241.839,2413.536a4.844,4.844,0,0,1-3.586-1.232,4.963,4.963,0,0,1-1.224-3.646V2401.3h1.376v7.478a3.7,3.7,0,0,0,.868,2.676,3.419,3.419,0,0,0,2.566.892,3.348,3.348,0,0,0,2.53-.9,3.709,3.709,0,0,0,.868-2.668V2401.3h1.392v7.358a4.966,4.966,0,0,1-1.222,3.636A4.794,4.794,0,0,1,2241.839,2413.536Z" transform="translate(-2138.607 -2397.664)" fill="#fff"/>
      <path id="Caminho_830" data-name="Caminho 830" d="M2247.276,2413.6a8.971,8.971,0,0,1-1.752-.162,5.953,5.953,0,0,1-1.512-.51,5.542,5.542,0,0,1-1.256-.858l.526-1.07a5.941,5.941,0,0,0,1.844,1.086,6.551,6.551,0,0,0,2.166.324,3.824,3.824,0,0,0,2.244-.57,1.854,1.854,0,0,0,.8-1.606,1.334,1.334,0,0,0-.4-1.01,2.818,2.818,0,0,0-1.088-.612q-.687-.231-1.554-.434-.866-.186-1.648-.432a6.071,6.071,0,0,1-1.384-.62,2.755,2.755,0,0,1-.944-.952,2.829,2.829,0,0,1-.34-1.446,3.146,3.146,0,0,1,.544-1.826,3.585,3.585,0,0,1,1.528-1.232,5.669,5.669,0,0,1,2.33-.442,7.049,7.049,0,0,1,1.6.178,6.031,6.031,0,0,1,1.42.52,4.937,4.937,0,0,1,1.164.832l-.544,1.07a5.78,5.78,0,0,0-1.716-1.07,5.324,5.324,0,0,0-1.92-.34,3.632,3.632,0,0,0-2.21.594,1.961,1.961,0,0,0-.8,1.666,1.565,1.565,0,0,0,.356,1.07,2.475,2.475,0,0,0,1,.654,11.927,11.927,0,0,0,1.48.45q.882.2,1.7.442a7.273,7.273,0,0,1,1.454.588,2.845,2.845,0,0,1,1.01.9,2.444,2.444,0,0,1,.374,1.4,3.024,3.024,0,0,1-.544,1.8,3.52,3.52,0,0,1-1.546,1.19A6.062,6.062,0,0,1,2247.276,2413.6Z" transform="translate(-2132.88 -2397.732)" fill="#fff"/>
    </g>
    <g id="Grupo_69" data-name="Grupo 69" transform="translate(2047.25 2377.082)">
      <g id="Grupo_73" data-name="Grupo 73">
        <g id="Grupo_18-2" data-name="Grupo 18-2">
          <g id="União_1-2" data-name="União 1-2">
            <path id="Caminho_831" data-name="Caminho 831" d="M2072.23,2431.234l.076-.592a31.577,31.577,0,0,0,.226-4.914,21.509,21.509,0,0,1-6.168-1.442l-.226-.09c-.352-.144-.7-.3-1.046-.462a31.659,31.659,0,0,0-2.258,4.364l-.23.548-3.63-2.086.36-.474a31.586,31.586,0,0,0,2.652-4.146,21.726,21.726,0,0,1-3.322-2.852l-.3-.322a21.737,21.737,0,0,1-1.822-2.278,31.389,31.389,0,0,0-4.144,2.652l-.472.36-2.094-3.62.548-.23a31.385,31.385,0,0,0,4.364-2.258c-.26-.556-.5-1.124-.712-1.7l-.084-.226a21.521,21.521,0,0,1-1.194-5.518,31.719,31.719,0,0,0-4.914.228l-.59.074v-4.19l.59.074a31.384,31.384,0,0,0,4.916.228c.048-.564.116-1.128.206-1.682l.016-.1a21.531,21.531,0,0,1,1.766-5.664,31.385,31.385,0,0,0-4.364-2.258l-.548-.232,2.1-3.628.474.36a31.466,31.466,0,0,0,4.14,2.652,21.636,21.636,0,0,1,5.446-5.442,31.49,31.49,0,0,0-2.654-4.144l-.36-.474,3.628-2.094.232.548a31.2,31.2,0,0,0,2.258,4.364,21.351,21.351,0,0,1,7.44-1.99,31.819,31.819,0,0,0-.226-4.914l-.074-.59h4.188l-.072.59a31.48,31.48,0,0,0-.228,4.914,21.509,21.509,0,0,1,6.654,1.638l.11.048c.218.092.444.2.676.3a31.214,31.214,0,0,0,2.26-4.364l.23-.548,3.628,2.1-.36.474a31.394,31.394,0,0,0-2.652,4.14,21.629,21.629,0,0,1,5.442,5.444,31.468,31.468,0,0,0,4.142-2.654l.474-.358,2.1,3.626-.548.232a31.391,31.391,0,0,0-4.364,2.26,21.4,21.4,0,0,1,1.992,7.438,31.265,31.265,0,0,0,4.912-.226l.59-.074v4.188l-.59-.074a31.794,31.794,0,0,0-4.916-.226c-.016.19-.034.38-.054.566l-.022.214a21.774,21.774,0,0,1-.374,2.194l-.1.424a21.633,21.633,0,0,1-1.436,4.046,31.539,31.539,0,0,0,4.366,2.258l.548.232-2.1,3.628-.474-.36a31.526,31.526,0,0,0-4.148-2.658,21.747,21.747,0,0,1-2.606,3.09l-.076.074a21.674,21.674,0,0,1-2.762,2.28,31.428,31.428,0,0,0,2.654,4.142l.358.474-3.626,2.1-.232-.548a31.424,31.424,0,0,0-2.26-4.364,21.5,21.5,0,0,1-4.66,1.58l-.2.038a21.878,21.878,0,0,1-2.58.368,31.447,31.447,0,0,0,.228,4.912l.074.588Zm-7.518-8.858.422.212c.452.228.924.442,1.4.636l.2.08a20.465,20.465,0,0,0,6.336,1.41l.47.028.022.472a32.714,32.714,0,0,1-.146,4.968l1.82,0a32.562,32.562,0,0,1-.146-4.97l.022-.472.47-.028a20.316,20.316,0,0,0,2.908-.38l.242-.048a20.449,20.449,0,0,0,4.784-1.688l.422-.212.256.4a32.6,32.6,0,0,1,2.354,4.372l1.578-.914a32.5,32.5,0,0,1-2.61-4.228l-.216-.418.392-.26a20.733,20.733,0,0,0,3-2.422l.074-.074a20.582,20.582,0,0,0,2.734-3.312l.26-.392.418.216a32.46,32.46,0,0,1,4.234,2.616l.912-1.578a32.453,32.453,0,0,1-4.372-2.356l-.4-.254.21-.422a20.452,20.452,0,0,0,1.55-4.2l.1-.438a21.008,21.008,0,0,0,.356-2.076l.026-.234c.034-.322.062-.656.082-.99l.03-.47.47-.022a32.5,32.5,0,0,1,4.97.148v-1.822a32.464,32.464,0,0,1-4.968.146l-.47-.022-.028-.47a20.352,20.352,0,0,0-2.124-7.934l-.212-.422.4-.256a32.756,32.756,0,0,1,4.374-2.356l-.914-1.578a32.33,32.33,0,0,1-4.228,2.612l-.418.216-.26-.392a20.593,20.593,0,0,0-5.806-5.808l-.392-.26.216-.418a32.42,32.42,0,0,1,2.61-4.228l-1.578-.912a32.619,32.619,0,0,1-2.354,4.372l-.254.4-.422-.21c-.364-.182-.716-.346-1.052-.488l-.1-.044a20.374,20.374,0,0,0-6.78-1.592l-.472-.028-.022-.47a32.56,32.56,0,0,1,.148-4.97h-1.824a32.464,32.464,0,0,1,.148,4.968l-.022.472-.472.028a20.362,20.362,0,0,0-7.934,2.124l-.422.21-.254-.4a32.631,32.631,0,0,1-2.356-4.372l-1.576.91a32.674,32.674,0,0,1,2.612,4.23l.216.418-.392.26a20.589,20.589,0,0,0-5.812,5.808l-.26.392-.418-.216a32.514,32.514,0,0,1-4.228-2.612l-.912,1.578a32.584,32.584,0,0,1,4.372,2.356l.4.254-.212.422a20.451,20.451,0,0,0-1.876,5.79l-.016.1c-.11.676-.186,1.364-.228,2.05l-.028.47-.472.022a32.5,32.5,0,0,1-4.97-.146v1.822a32.5,32.5,0,0,1,4.97-.148l.47.022.028.472a20.429,20.429,0,0,0,1.17,5.7l.068.188a20.715,20.715,0,0,0,.886,2.046l.208.42-.4.254a32.342,32.342,0,0,1-4.37,2.356l.908,1.568a32.381,32.381,0,0,1,4.23-2.612l.418-.216.26.392a20.452,20.452,0,0,0,1.972,2.524l.3.328a20.747,20.747,0,0,0,3.536,2.966l.39.26-.214.418a32.511,32.511,0,0,1-2.612,4.23l1.578.908a32.387,32.387,0,0,1,2.356-4.374Z" transform="translate(-2047.25 -2377.082)" fill="#fff"/>
          </g>
          <path id="Caminho_176-2" data-name="Caminho 176-2" d="M2089.167,2401.183A21.134,21.134,0,1,1,2087.9,2394,21,21,0,0,1,2089.167,2401.183Z" transform="translate(-2040.975 -2374.107)" fill="#fff" opacity="0.05" style="isolation: isolate"/>
        </g>
      </g>
      <g id="Caminho_185" data-name="Caminho 185" transform="translate(12.654 26.887)">
        <path id="Caminho_832" data-name="Caminho 832" d="M2068.039,2403.369l-.14,0c-7.222,0-12.708-4.67-14.31-12.188a.539.539,0,0,1,1.054-.226c1.49,6.992,6.572,11.336,13.262,11.336l.128,0A12.746,12.746,0,0,0,2080.717,2391a.534.534,0,0,1,.6-.472.54.54,0,0,1,.474.6A13.822,13.822,0,0,1,2068.039,2403.369Z" transform="translate(-2053.577 -2390.526)" fill="#fff"/>
      </g>
      <g id="Elipse_22" data-name="Elipse 22" transform="translate(24.314 20.78)">
        <g id="Grupo_67" data-name="Grupo 67">
          <ellipse id="Elipse_24" data-name="Elipse 24" cx="1.023" cy="2.046" rx="1.023" ry="2.046" transform="translate(0.39 0.39)" fill="#fff"/>
          <path id="Caminho_833" data-name="Caminho 833" d="M2060.821,2392.344c-.806,0-1.414-1.048-1.414-2.436s.608-2.436,1.414-2.436,1.412,1.048,1.412,2.436S2061.625,2392.344,2060.821,2392.344Zm0-4.092c-.224,0-.634.628-.634,1.656s.41,1.656.634,1.656.632-.63.632-1.656S2061.043,2388.252,2060.821,2388.252Z" transform="translate(-2059.407 -2387.472)" fill="#fff"/>
        </g>
      </g>
      <g id="Elipse_23" data-name="Elipse 23" transform="translate(28.406 20.78)">
        <g id="Grupo_68" data-name="Grupo 68">
          <ellipse id="Elipse_25" data-name="Elipse 25" cx="1.023" cy="2.046" rx="1.023" ry="2.046" transform="translate(0.39 0.39)" fill="#fff"/>
          <path id="Caminho_834" data-name="Caminho 834" d="M2062.865,2392.344c-.8,0-1.412-1.048-1.412-2.436s.608-2.436,1.412-2.436,1.414,1.048,1.414,2.436S2063.671,2392.344,2062.865,2392.344Zm0-4.092c-.222,0-.632.628-.632,1.656s.41,1.656.632,1.656.634-.63.634-1.656S2063.089,2388.252,2062.865,2388.252Z" transform="translate(-2061.453 -2387.472)" fill="#fff"/>
        </g>
      </g>
    </g>
  </g>
</svg>
